<svg viewBox="381.7555 263.137 230.2136 120" width="50" height="26.06275215712712"
        xmlns="http://www.w3.org/2000/svg" xmlns:xlink="http://www.w3.org/1999/xlink" preserveAspectRatio="none">
        <defs></defs>
        <style>
          .aD6z1nYkhcolor {
            fill: var(--idw-dark);
            fill-opacity: 1;
          }

          .aD6z1nYkhstrokeColor-str {
            stroke: var(--idw-accent);
            stroke-opacity: 1;
          }
        </style>
        <g opacity="1" transform="rotate(0 381.7555 263.137)">
          <svg width="230.2136" height="120" x="381.7555" y="263.137" version="1.1" preserveAspectRatio="true"
            viewBox="0.8 -31.8 62.08 32.36">
            <g transform="matrix(1 0 0 1 0 0)" class="aD6z1nYkhcolor">
              <path id="id-D6z1nYkh3"
                d="M6.76-27.04Q6.76-29.12 8.10-30.20Q9.44-31.28 11.64-31.28L11.64-31.28Q13.40-31.28 14.30-30.60Q15.20-29.92 15.20-28.56L15.20-28.56Q15.20-26.72 13.80-25.56Q12.40-24.40 10.28-24.40L10.28-24.40Q8.56-24.40 7.66-25.08Q6.76-25.76 6.76-27.04L6.76-27.04ZM5.08-17.36Q5.28-17.88 5.28-18.36L5.28-18.36Q5.28-19.04 4.72-19.04L4.72-19.04Q4.08-19.04 3.56-18.48Q3.04-17.92 2.52-16.52L2.52-16.52L1.60-14.08L0.84-14.08L1.96-17.20Q3.44-21.32 7.92-21.32L7.92-21.32Q10.08-21.32 11.08-20.28Q12.08-19.24 12.08-17.64L12.08-17.64Q12.08-16.76 11.76-15.72L11.76-15.72L7.60-3.40Q7.40-2.72 7.40-2.44L7.40-2.44Q7.40-1.72 8.08-1.72L8.08-1.72Q9.24-1.72 10.20-4.24L10.20-4.24L11.04-6.48L11.80-6.48L10.80-3.56Q9.36 0.56 5.08 0.56L5.08 0.56Q3.04 0.56 1.92-0.40Q0.80-1.36 0.80-3.24L0.80-3.24Q0.80-4.52 1.40-6.32L1.40-6.32L5.08-17.36Z M34.44-4.24L35.28-6.48L36.04-6.48L35.04-3.56Q33.60 0.56 29.32 0.56L29.32 0.56Q26.76 0.56 25.72-0.96L25.72-0.96Q25.12-1.88 25.12-3.24L25.12-3.24Q25.12-3.88 25.32-4.96L25.32-4.96Q24.08-2.12 22.52-0.78Q20.96 0.56 18.56 0.56L18.56 0.56Q16.32 0.56 14.86-0.88Q13.40-2.32 13.40-5.28L13.40-5.28Q13.40-8.44 15.02-12.22Q16.64-16 19.74-18.66Q22.84-21.32 26.96-21.32L26.96-21.32Q28.88-21.32 29.40-20.32L29.40-20.32L31.08-26.68Q31.28-27.40 31.28-27.80L31.28-27.80Q31.28-28.60 30.66-28.96Q30.04-29.32 28.56-29.32L28.56-29.32L28.84-30.16Q32.04-30.20 34.64-30.60Q37.24-31 39.68-31.80L39.68-31.80L31.84-3.40Q31.64-2.92 31.64-2.48L31.64-2.48Q31.64-1.72 32.32-1.72L32.32-1.72Q33.48-1.72 34.44-4.24L34.44-4.24ZM21.84-1.92Q22.72-1.92 24.08-4Q25.44-6.08 26.72-10.28L26.72-10.28L29.16-19.40Q29-19.92 28.72-20.16Q28.44-20.40 27.88-20.40L27.88-20.40Q26.64-20.40 24.96-18.02Q23.28-15.64 22.08-11.90Q20.88-8.16 20.88-4.20L20.88-4.20Q20.88-3 21.08-2.46Q21.28-1.92 21.84-1.92L21.84-1.92Z M58.60-21.32Q60.92-21.32 61.90-18.60Q62.88-15.88 62.88-12.88L62.88-12.88Q62.88-9.48 61.82-6.38Q60.76-3.28 58.70-1.36Q56.64 0.56 53.88 0.56L53.88 0.56Q52.40 0.56 51.16 0.08Q49.92-0.40 49.16-1.48L49.16-1.48Q46.80 0.56 43 0.56L43 0.56Q40.36 0.56 38.86-0.86Q37.36-2.28 37.36-4.56L37.36-4.56Q37.36-6.68 38.80-8.72Q40.24-10.76 42.58-12.76Q44.92-14.76 49.48-18.16L49.48-18.16L51.40-19.60Q49.96-19.56 48.96-19Q47.96-18.44 46.68-17.40L46.68-17.40Q45.80-16.64 45.18-16.26Q44.56-15.88 43.84-15.88L43.84-15.88Q43.24-15.88 42.60-16.20L42.60-16.20Q42.04-16.48 41.64-16.48L41.64-16.48Q41.16-16.48 40.88-16.14Q40.60-15.80 40.32-14.96L40.32-14.96L40.04-14.12L39.28-14.12L40.16-17.04Q40.84-19.36 41.82-20.24Q42.80-21.12 44-21.12L44-21.12Q44.72-21.12 45.88-20.76L45.88-20.76Q47.48-20.20 49.16-20.20L49.16-20.20Q50.76-20.20 52.12-20.80L52.12-20.80L52.52-21.56L53.36-21.16Q49.68-16.88 47.32-12.10Q44.96-7.32 44.96-4.08L44.96-4.08Q44.96-2.84 45.38-2.20Q45.80-1.56 46.84-1.56L46.84-1.56Q47.84-1.56 48.80-2.08L48.80-2.08Q48.20-3.24 48.20-4.92L48.20-4.92Q48.20-7.32 49.30-9.50Q50.40-11.68 52.02-13.02Q53.64-14.36 55-14.36L55-14.36Q56.64-14.36 56.64-11.84L56.64-11.84Q56.64-7.64 53.92-4.24L53.92-4.24Q54.96-2.76 56.88-2.76L56.88-2.76Q59.24-2.76 60.58-5.50Q61.92-8.24 62.04-12.24L62.04-12.24Q59.20-13.56 57.52-14.98Q55.84-16.40 55.84-18.72L55.84-18.72Q55.84-19.72 56.54-20.52Q57.24-21.32 58.60-21.32L58.60-21.32ZM55.08-13.48Q54.60-13.48 54.16-12.56Q53.72-11.64 53.44-10.18Q53.16-8.72 53.16-7.12L53.16-7.12Q53.16-5.92 53.52-4.96L53.52-4.96Q54.56-6.44 55.14-8.18Q55.72-9.92 55.72-11.60L55.72-11.60Q55.72-13.48 55.08-13.48L55.08-13.48Z" />
            </g>
          </svg>
        </g>
      </svg>